<?xml version="1.0" encoding="iso-8859-1"?>
<!-- Generator: Adobe Illustrator 19.1.0, SVG Export Plug-In . SVG Version: 6.00 Build 0)  -->
<svg version="1.1" id="Warstwa_1" xmlns="http://www.w3.org/2000/svg" xmlns:xlink="http://www.w3.org/1999/xlink" x="0px" y="0px"
	 viewBox="0 0 560 102" style="enable-background:new 0 0 560 102;" xml:space="preserve">
<g>
	<path style="fill:#FFFFFF;" d="M107.213,24.87l-1.891,15.121c-1.36-0.843-3.882-1.58-6.617-1.58
		c-6.295,0-11.762,4.101-11.762,12.395v26.468h-17.85V24.762h15.748l0.742,11.342c2.516-7.773,7.768-12.391,15.961-12.391
		C104.167,23.714,106.058,24.236,107.213,24.87z"/>
	<path style="fill:#FFFFFF;" d="M109.223,12.521c0-5.983,3.153-8.611,10.396-8.611c7.25,0,10.401,2.628,10.401,8.611
		c0,5.881-3.151,8.509-10.401,8.509C112.376,21.03,109.223,18.402,109.223,12.521z"/>
	<rect x="110.69" y="24.762" style="fill:#FFFFFF;" width="17.856" height="52.512"/>
	<path style="fill:#FFFFFF;" d="M221.762,42.297v34.977h-17.853V46.398c0-6.617-2.837-9.035-7.138-9.035
		c-5.359,0-9.241,3.993-9.241,11.874v28.038h-17.86V46.398c0-6.617-2.941-9.035-7.139-9.035c-4.936,0-9.242,3.574-9.242,12.186
		v27.726h-17.855V24.762h15.965l0.526,10.08c3.359-7.349,9.659-11.128,17.647-11.128c7.768,0,14.068,3.57,16.589,10.606
		c3.467-6.929,9.98-10.606,17.647-10.606C214.101,23.714,221.762,30.014,221.762,42.297z"/>
	<path style="fill:#FFFFFF;" d="M279.487,56.165h-35.814c1.154,6.827,5.041,9.553,11.024,9.553c5.257,0,8.509-2.097,9.666-5.769
		l14.491,4.613c-3.043,9.142-11.971,13.76-24.157,13.76c-18.373,0-28.349-9.976-28.349-27.302c0-17.335,9.87-27.307,27.408-27.307
		c17.12,0,26.254,9.972,26.254,26.57C280.01,52.069,279.804,54.8,279.487,56.165z M243.569,46.5h19.744
		c-0.843-6.719-4.095-10.288-9.66-10.288C247.978,36.212,244.618,39.464,243.569,46.5z"/>
	<path style="fill:#FFFFFF;" d="M337.982,2.498v74.776H321.91l-0.628-9.977c-3.048,6.617-9.036,11.025-17.117,11.025
		c-13.551,0-21.636-9.976-21.636-27.097c0-17.433,8.193-27.512,21.738-27.512c7.671,0,12.917,3.886,15.858,9.87V2.498H337.982z
		 M320.126,53.118v-4.204c-0.419-7.768-3.989-12.073-9.767-12.073c-6.091,0-9.87,4.306-9.87,14.18c0,9.87,3.779,14.175,9.87,14.175
		C316.031,65.196,319.707,61.1,320.126,53.118z"/>
	<path style="fill:#FFFFFF;" d="M396.588,56.165h-35.815c1.156,6.827,5.042,9.553,11.035,9.553c5.248,0,8.499-2.097,9.655-5.769
		l14.497,4.613c-3.048,9.142-11.976,13.76-24.152,13.76c-18.383,0-28.365-9.976-28.365-27.302c0-17.335,9.875-27.307,27.414-27.307
		c17.12,0,26.259,9.972,26.259,26.57C397.116,52.069,396.905,54.8,396.588,56.165z M360.671,46.5h19.745
		c-0.839-6.719-4.097-10.288-9.66-10.288C365.079,36.212,361.72,39.464,360.671,46.5z"/>
	<path style="fill:#FFFFFF;" d="M399.938,69.082l9.242-10.084c3.15,5.256,8.821,7.456,15.545,7.456c4.935,0,7.875-1.468,7.875-3.672
		c0-1.999-2.522-3.257-9.557-4.725c-15.964-3.155-21.738-8.299-21.738-16.911c0-8.611,8.187-17.433,25.308-17.433
		c12.606,0,19.534,3.677,24.05,9.87l-9.244,9.035c-3.356-4.935-7.978-7.041-14.277-7.041c-5.257,0-7.983,1.892-7.983,3.993
		c0,2.101,2.307,3.467,9.66,4.828c15.545,2.735,21.742,7.67,21.742,16.701c0,9.66-8.089,17.223-24.995,17.223
		C414.007,78.322,405.293,75.597,399.938,69.082z"/>
	<path style="fill:#FFFFFF;" d="M482.4,55.746l-8.504,9.45v12.078h-17.857V2.498h17.857v44.319l20.055-22.055H513.7l-19.324,20.583
		l20.474,31.929h-19.744L482.4,55.746z"/>
	<g>
		<polygon style="fill:#FFFFFF;" points="0,24.772 0,37.027 9.52,37.027 9.52,99.329 25.69,99.329 25.69,35.848 25.168,24.762 		"/>
		<path style="fill:#FFFFFF;" d="M43.235,23.714c-5.233,0-9.59,1.874-12.833,4.995v11.03c1.645-1.92,3.895-2.898,6.634-2.898
			c6.091,0,9.87,4.306,9.87,14.18c0,9.87-3.779,14.175-9.87,14.175c-2.786,0-5.013-1.006-6.634-2.898v10.703
			c3.047,3.327,7.344,5.322,12.833,5.322c13.438,0,21.63-10.079,21.63-27.516C64.865,33.686,56.888,23.714,43.235,23.714z"/>
	</g>
</g>
<g>
	<path style="fill:#FFFFFF;" d="M534,17c0,5.271-3.428,8.7-8.752,8.7c-5.322,0-8.751-3.429-8.751-8.7c0-5.272,3.428-8.7,8.751-8.7
		C530.572,8.3,534,11.729,534,17z M532.183,17c0-4.273-2.713-7.037-6.935-7.037c-4.221,0-6.934,2.764-6.934,7.037
		s2.713,7.037,6.934,7.037C529.471,24.037,532.183,21.273,532.183,17z M527.117,18.202l2.507,3.583h-1.944l-2.279-3.428h-1.738
		v3.428h-1.714v-9.468h3.89c2.123,0,3.581,1.152,3.581,3.019C529.419,16.796,528.525,17.819,527.117,18.202z M523.663,17.051h2.149
		c1.229,0,1.893-0.563,1.893-1.715c0-1.151-0.664-1.714-1.893-1.714h-2.149V17.051z"/>
</g>
</svg>
