<?xml version="1.0" encoding="utf-8"?>
<!-- Generator: Adobe Illustrator 19.1.0, SVG Export Plug-In . SVG Version: 6.00 Build 0)  -->
<svg version="1.1" id="Warstwa_1" xmlns="http://www.w3.org/2000/svg" xmlns:xlink="http://www.w3.org/1999/xlink" x="0px" y="0px"
	 viewBox="0 0 595.3 841.9" enable-background="new 0 0 595.3 841.9" xml:space="preserve">
<g>
	<path fill="#332D2E" d="M140,395l-2,15.9c-1.4-0.9-4.1-1.7-6.9-1.7c-6.6,0-12.3,4.3-12.3,13V450H100v-55h16.5l0.8,11.9
		c2.6-8.1,8.1-13,16.7-13C136.8,393.8,138.8,394.4,140,395z"/>
	<path fill="#332D2E" d="M142.1,382.1c0-6.3,3.3-9,10.9-9c7.6,0,10.9,2.8,10.9,9c0,6.2-3.3,8.9-10.9,8.9
		C145.4,391,142.1,388.2,142.1,382.1z"/>
	<rect x="143.6" y="394.9" fill="#332D2E" width="18.7" height="55"/>
	<path fill="#332D2E" d="M260.1,413.3V450h-18.7v-32.4c0-6.9-3-9.5-7.5-9.5c-5.6,0-9.7,4.2-9.7,12.4V450h-18.7v-32.4
		c0-6.9-3.1-9.5-7.5-9.5c-5.2,0-9.7,3.7-9.7,12.8V450h-18.7v-55h16.7l0.6,10.6c3.5-7.7,10.1-11.7,18.5-11.7
		c8.1,0,14.7,3.7,17.4,11.1c3.6-7.3,10.5-11.1,18.5-11.1C252,393.8,260.1,400.4,260.1,413.3z"/>
	<path fill="#332D2E" d="M320.6,427.8H283c1.2,7.2,5.3,10,11.6,10c5.5,0,8.9-2.2,10.1-6l15.2,4.8c-3.2,9.6-12.5,14.4-25.3,14.4
		c-19.3,0-29.7-10.5-29.7-28.6c0-18.2,10.3-28.6,28.7-28.6c17.9,0,27.5,10.5,27.5,27.9C321.1,423.5,320.9,426.4,320.6,427.8z
		 M282.9,417.7h20.7c-0.9-7-4.3-10.8-10.1-10.8C287.5,406.9,284,410.3,282.9,417.7z"/>
	<path fill="#332D2E" d="M381.9,371.6V450H365l-0.7-10.5c-3.2,6.9-9.5,11.6-17.9,11.6c-14.2,0-22.7-10.5-22.7-28.4
		c0-18.3,8.6-28.8,22.8-28.8c8,0,13.5,4.1,16.6,10.3v-32.6H381.9z M363.2,424.6v-4.4c-0.4-8.1-4.2-12.7-10.2-12.7
		c-6.4,0-10.3,4.5-10.3,14.9c0,10.3,4,14.9,10.3,14.9C358.9,437.3,362.7,433,363.2,424.6z"/>
	<path fill="#332D2E" d="M443.3,427.8h-37.5c1.2,7.2,5.3,10,11.6,10c5.5,0,8.9-2.2,10.1-6l15.2,4.8c-3.2,9.6-12.6,14.4-25.3,14.4
		c-19.3,0-29.7-10.5-29.7-28.6c0-18.2,10.4-28.6,28.7-28.6c17.9,0,27.5,10.5,27.5,27.9C443.9,423.5,443.7,426.4,443.3,427.8z
		 M405.7,417.7h20.7c-0.9-7-4.3-10.8-10.1-10.8C410.3,406.9,406.8,410.3,405.7,417.7z"/>
	<path fill="#332D2E" d="M446.8,441.4l9.7-10.6c3.3,5.5,9.2,7.8,16.3,7.8c5.2,0,8.3-1.5,8.3-3.8c0-2.1-2.6-3.4-10-5
		c-16.7-3.3-22.8-8.7-22.8-17.7c0-9,8.6-18.3,26.5-18.3c13.2,0,20.5,3.9,25.2,10.3l-9.7,9.5c-3.5-5.2-8.4-7.4-15-7.4
		c-5.5,0-8.4,2-8.4,4.2c0,2.2,2.4,3.6,10.1,5.1c16.3,2.9,22.8,8,22.8,17.5c0,10.1-8.5,18.1-26.2,18.1
		C461.6,451.1,452.5,448.2,446.8,441.4z"/>
	<path fill="#332D2E" d="M533.3,427.4l-8.9,9.9V450h-18.7v-78.4h18.7V418l21-23.1h20.7l-20.3,21.6l21.5,33.5h-20.7L533.3,427.4z"/>
	<g>
		<polygon fill="#332D2E" points="27.6,394.9 27.6,407.8 37.6,407.8 37.6,473.1 54.5,473.1 54.5,406.5 54,394.9 		"/>
		<path fill="#332D2E" d="M72.9,393.8c-5.5,0-10.1,2-13.5,5.2v11.6c1.7-2,4.1-3,7-3c6.4,0,10.3,4.5,10.3,14.9
			c0,10.3-4,14.9-10.3,14.9c-2.9,0-5.3-1.1-7-3v11.2c3.2,3.5,7.7,5.6,13.5,5.6c14.1,0,22.7-10.6,22.7-28.8
			C95.6,404.3,87.2,393.8,72.9,393.8z"/>
	</g>
</g>
</svg>
